# Alias OBJ Model File
# Exported from SketchUp, (c) 2000-2012 Trimble Navigation Limited
# File units = centimeters

mtllib Croissant.mtl

g Mesh1 Groupe_1_1 Model

usemtl Croissant
v 5.2189 0.620994 -0.773305
vt 0.434908 0.120727
vn -0.164758 0.228647 0.959466
v 6.77139 3.10862e-15 -0.593855
vt 0.564282 0.0927116
vn 0.33778 1.22122e-16 0.941225
v 6.84937 0.620994 -0.963898
vt 0.570781 0.150482
vn 0.51935 0.181628 0.835037
f 1/1/1 2/2/2 3/3/3

v 5.27936 3.10862e-15 -0.4
vt 0.439947 0.0624473
vn -0.335088 8.86945e-17 0.942187
vn 0.33778 1.19282e-16 0.941225
f 1/1/1 4/4/4 2/2/5

v 5.2223 2.66454e-15 -0.752309
vt 0.435192 0.117449
vn -0.237847 -5.78111e-17 0.971303
vn -0.335088 9.06565e-17 0.942187
f 1/1/1 5/5/6 4/4/7

v 5.16948 0.542476 -1.07841
vt 0.43079 0.16836
vn -0.478323 0.195222 0.85621
f 5/5/6 1/1/1 6/6/8

v 5.05371 1.07559 -1.79319
vt 0.421143 0.27995
vn -0.43745 0.575212 0.691208
f 6/6/8 1/1/1 7/7/9

v 7.06241 1.07559 -1.97487
vt 0.588534 0.308314
vn 0.469301 0.422921 0.775173
f 8/8/10 7/7/9 1/1/1

v 7.35344 1.24199 -3.35589
vt 0.612787 0.523916
vn 0.594583 0.75486 0.27687
f 9/9/11 7/7/9 8/8/10

v 4.82806 1.24199 -3.18639
vt 0.402339 0.497453
vn -0.616616 0.784432 -0.0667163
f 9/9/11 10/10/12 7/7/9

v 7.64447 1.07559 -4.73691
vt 0.637039 0.739518
vn 0.505444 0.641274 -0.577316
f 11/11/13 10/10/12 9/9/11

v 4.60242 1.07559 -4.57958
vt 0.383535 0.714956
vn -0.500563 0.487543 -0.715359
f 11/11/13 12/12/14 10/10/12

v 7.85751 0.620994 -5.74789
vt 0.654793 0.897349
vn 0.35262 0.294868 -0.888095
f 11/11/13 13/13/15 12/12/14

v 7.80427 0.555407 -5.49525
vt 0.650356 0.857909
vn 0.473073 0.234674 -0.849194
f 11/11/13 14/14/16 13/13/15

v 7.61373 0.961993 -4.59105
vt 0.634477 0.716747
vn 0.629264 0.590317 -0.505522
f 11/11/13 15/15/17 14/14/16

f 9/9/11 15/15/17 11/11/13

v 7.35344 1.11081 -3.35589
vn 0.564685 0.775599 0.282095
f 9/9/11 16/9/18 15/15/17

v 7.09315 0.961993 -2.12073
vt 0.591096 0.331085
vn 0.297267 0.468494 0.831953
f 9/9/11 17/16/19 16/9/18

f 8/8/10 17/16/19 9/9/11

v 6.90261 0.555407 -1.21653
vt 0.575217 0.189923
vn 0.173373 0.185254 0.967276
f 8/8/10 18/17/20 17/16/19

f 3/3/3 18/17/20 8/8/10

v 6.83286 2.88658e-15 -0.885571
vt 0.569405 0.138254
vn 0.148524 -0.0361492 0.988248
f 3/3/3 19/18/21 18/17/20

vn 0.33778 1.23401e-16 0.941225
f 19/18/21 3/3/3 2/2/22

v 6.84937 -0.620994 -0.963898
vn 0.51935 -0.181628 0.835037
f 20/3/23 19/18/21 2/2/22

v 6.90261 -0.555407 -1.21653
vn 0.334433 -0.210815 0.918538
f 19/18/21 20/3/23 21/17/24

v 7.06241 -1.07559 -1.97487
vn 0.469301 -0.422921 0.775173
f 21/17/24 20/3/23 22/8/25

v 5.2189 -0.620994 -0.773305
vn -0.164758 -0.228647 0.959466
f 23/1/26 22/8/25 20/3/23

v 5.05371 -1.07559 -1.79319
vn -0.43745 -0.575212 0.691208
f 22/8/25 23/1/26 24/7/27

v 5.16948 -0.542476 -1.07841
vn -0.478323 -0.195222 0.85621
f 23/1/26 25/6/28 24/7/27

f 23/1/26 5/5/6 25/6/28

f 5/5/6 23/1/26 4/4/7

vn 0.33778 1.24962e-16 0.941225
f 4/4/4 23/1/26 2/2/29

f 2/2/2 23/1/26 20/3/23

vn -0.237847 -5.88526e-17 0.971303
v 3.54644 -0.477379 -1.03442
vt 0.295537 0.161492
vn -0.262633 -0.212597 0.941183
f 5/5/30 26/19/31 25/6/28

vn -0.237847 -6.17952e-17 0.971303
v 3.63338 2.22045e-15 -0.757014
vt 0.302782 0.118184
vn -0.394387 -1.50517e-16 0.918944
f 5/5/32 27/20/33 26/19/31

v 3.54644 0.477379 -1.03442
vn -0.262633 0.212597 0.941183
f 28/19/34 27/20/33 5/5/32

vn -0.394387 -1.51689e-16 0.918944
f 28/19/34 26/19/31 27/20/35

v 3.47953 2.22045e-15 -1.24796
vt 0.289961 0.194829
vn -0.428637 -1.68929e-16 0.903477
f 26/19/31 28/19/34 29/21/36

v 3.4132 0.364192 -1.45959
vt 0.284434 0.227869
vn -0.481206 0.172048 0.859559
f 28/19/34 30/22/37 29/21/36

v 3.30893 0.826844 -1.79232
vt 0.275745 0.279814
vn -0.518176 0.496138 0.696664
f 30/22/37 28/19/34 31/23/38

v 5.02518 0.939596 -1.96935
vt 0.418765 0.307451
vn -0.48016 0.421238 0.769419
f 32/24/39 31/23/38 28/19/34

v 4.82806 1.08495 -3.18639
vn -0.716603 0.646905 0.260757
f 32/24/39 33/10/40 31/23/38

f 32/24/39 10/10/12 33/10/40

f 32/24/39 7/7/9 10/10/12

f 6/6/8 7/7/9 32/24/39

f 32/24/39 28/19/34 6/6/8

vn -0.237847 -6.47378e-17 0.971303
f 6/6/8 28/19/34 5/5/41

f 33/10/40 10/10/12 12/12/14

v 4.63095 0.939596 -4.40343
vt 0.385912 0.687455
vn -0.741072 0.519256 -0.425659
f 33/10/40 12/12/14 34/25/42

v 4.48665 0.542476 -5.29437
vt 0.373887 0.826546
vn -0.642098 0.254582 -0.723117
f 34/25/42 12/12/14 35/26/43

v 4.43723 0.620994 -5.59947
vt 0.369769 0.874179
vn -0.397393 0.192945 -0.897135
f 35/26/43 12/12/14 36/27/44

f 12/12/14 13/13/15 36/27/44

v 7.93549 2.88658e-15 -6.11793
vt 0.661291 0.95512
vn 0.303187 0.0399607 -0.952093
f 13/13/15 37/28/45 36/27/44

v 7.87402 3.33067e-15 -5.82621
vt 0.656168 0.909578
vn 0.523912 -0.0365674 -0.850987
f 13/13/15 38/29/46 37/28/45

f 13/13/15 14/14/16 38/29/46

v 9.9858 4.21885e-15 -5.35023
vt 0.83215 0.835269
vn 0.536204 0.0389591 -0.843189
f 14/14/16 39/30/47 38/29/46

v 9.86239 0.555407 -5.03532
vt 0.821866 0.786106
vn 0.695269 0.226165 -0.682239
f 40/31/48 39/30/47 14/14/16

v 9.88377 3.77476e-15 -5.08989
vt 0.823648 0.794624
vn 0.805213 2.15869e-16 -0.592985
f 40/31/48 41/32/49 39/30/47

v 9.77403 0.493889 -4.80986
vt 0.814502 0.750906
vn 0.83495 0.198476 -0.51329
f 40/31/48 42/33/50 41/32/49

v 9.52522 0.961993 -4.17497
vt 0.793768 0.651789
vn 0.616729 0.498736 -0.609022
f 43/34/51 42/33/50 40/31/48

v 9.47421 0.855441 -4.0448
vt 0.789517 0.631467
vn 0.891271 0.399069 -0.21536
f 43/34/51 44/35/52 42/33/50

v 9.06464 1.11081 -2.99971
vt 0.755387 0.46831
vn 0.610514 0.788945 0.0695578
f 45/36/53 44/35/52 43/34/51

v 9.06464 0.987778 -2.99971
vn 0.818176 0.479385 0.317456
f 45/36/53 46/36/54 44/35/52

v 8.65508 0.855441 -1.95463
vt 0.721256 0.305152
vn 0.597347 0.348699 0.722209
f 45/36/53 47/37/55 46/36/54

v 8.60406 0.961993 -1.82445
vt 0.717005 0.28483
vn 0.333071 0.55856 0.759654
f 48/38/56 47/37/55 45/36/53

v 8.35525 0.493889 -1.18957
vt 0.696271 0.185713
vn 0.443915 0.167779 0.880222
f 48/38/56 49/39/57 47/37/55

v 8.26689 0.555407 -0.964101
vt 0.688908 0.150514
vn 0.171669 0.256704 0.951122
f 50/40/58 49/39/57 48/38/56

v 8.24551 3.10862e-15 -0.909538
vt 0.687126 0.141995
vn 0.396632 2.24338e-16 0.917978
f 50/40/58 51/41/59 49/39/57

v 8.14348 3.55271e-15 -0.64919
vt 0.678623 0.10135
vn 0.126903 0.0350924 0.991294
f 51/41/59 50/40/58 52/42/60

f 50/40/58 18/17/20 52/42/60

f 50/40/58 17/16/19 18/17/20

f 48/38/56 17/16/19 50/40/58

f 48/38/56 16/9/18 17/16/19

f 45/36/53 16/9/18 48/38/56

f 45/36/53 15/15/17 16/9/18

f 43/34/51 15/15/17 45/36/53

f 43/34/51 14/14/16 15/15/17

f 40/31/48 14/14/16 43/34/51

f 18/17/20 19/18/21 52/42/60

v 8.26689 -0.555407 -0.964101
vn 0.0842739 -0.224169 0.9709
f 52/42/60 19/18/21 53/40/61

f 19/18/21 21/17/24 53/40/61

v 7.09315 -0.961993 -2.12073
vn 0.297267 -0.468494 0.831953
f 53/40/61 21/17/24 54/16/62

f 21/17/24 22/8/25 54/16/62

v 7.35344 -1.24199 -3.35589
vn 0.594583 -0.75486 0.27687
f 54/16/62 22/8/25 55/9/63

f 55/9/63 22/8/25 24/7/27

v 4.82806 -1.24199 -3.18639
vn -0.616616 -0.784432 -0.0667163
f 55/9/63 24/7/27 56/10/64

v 5.02518 -0.939596 -1.96935
vn -0.48016 -0.421238 0.769419
f 24/7/27 57/24/65 56/10/64

f 24/7/27 25/6/28 57/24/65

f 26/19/31 57/24/65 25/6/28

v 3.30893 -0.826844 -1.79232
vn -0.518176 -0.496138 0.696664
f 26/19/31 58/23/66 57/24/65

v 3.4132 -0.364192 -1.45959
vn -0.481206 -0.172048 0.859559
f 26/19/31 59/22/67 58/23/66

f 26/19/31 29/21/36 59/22/67

vn -0.428637 -1.67776e-16 0.903477
v 1.11475 -0.21058 -1.49834
vt 0.0928955 0.233918
f 29/21/68 60/43/67 59/22/67

v 1.15309 6.66134e-16 -1.37597
vt 0.0960912 0.214814
vn -0.428637 -1.77645e-16 0.903477
f 60/43/67 29/21/68 61/44/69

v 1.11475 0.21058 -1.49834
f 29/21/68 62/43/37 61/44/69

f 62/43/37 29/21/68 30/22/37

v 1.00998 0.364736 -1.83266
vt 0.0841646 0.286111
vn -0.643969 0.349105 0.680756
f 30/22/37 63/45/70 62/43/37

v 3.23201 0.630799 -2.03779
vt 0.269334 0.318136
f 63/45/70 30/22/37 64/46/70

f 30/22/37 31/23/38 64/46/70

v 2.98449 0.954758 -2.82762
vt 0.248707 0.441443
vn -0.747582 0.659109 0.0818356
f 64/46/70 31/23/38 65/47/71

f 33/10/40 65/47/71 31/23/38

f 33/10/40 34/25/42 65/47/71

v 2.66004 0.826844 -3.86293
vt 0.22167 0.603073
vn -0.720291 0.447322 -0.530173
f 34/25/42 66/48/72 65/47/71

f 34/25/42 35/26/43 66/48/72

v 2.42253 0.477379 -4.62083
vt 0.201878 0.721395
vn -0.635144 0.184285 -0.750087
f 35/26/43 67/49/73 66/48/72

v 4.43383 2.66454e-15 -5.62047
vt 0.369486 0.877457
vn -0.598958 0.0352702 -0.800003
f 35/26/43 68/50/74 67/49/73

f 35/26/43 36/27/44 68/50/74

v 4.37677 2.88658e-15 -5.97278
vt 0.364731 0.932459
vn -0.37479 -0.0374298 -0.926354
f 68/50/74 36/27/44 69/51/75

f 36/27/44 37/28/45 69/51/75

v 7.85751 -0.620994 -5.74789
vn 0.246305 -0.249372 -0.936562
f 37/28/45 70/13/76 69/51/75

f 38/29/46 70/13/76 37/28/45

v 7.80427 -0.555407 -5.49525
vn 0.554186 -0.272246 -0.786613
f 71/14/77 70/13/76 38/29/46

v 7.64447 -1.07559 -4.73691
vn 0.505444 -0.641274 -0.577316
f 71/14/77 72/11/78 70/13/76

v 7.61373 -0.961993 -4.59105
vn 0.629264 -0.590317 -0.505522
f 73/15/79 72/11/78 71/14/77

v 7.35344 -1.11081 -3.35589
vn 0.564685 -0.775599 0.282095
f 74/9/80 72/11/78 73/15/79

f 74/9/80 55/9/63 72/11/78

f 54/16/62 55/9/63 74/9/80

v 8.60406 -0.961993 -1.82445
vn 0.333071 -0.55856 0.759654
f 75/38/81 54/16/62 74/9/80

f 75/38/81 53/40/61 54/16/62

v 8.35525 -0.493889 -1.18957
vn 0.443915 -0.167779 0.880222
f 76/39/82 53/40/61 75/38/81

f 51/41/59 53/40/61 76/39/82

f 53/40/61 51/41/59 52/42/60

v 9.78261 -0.414867 -1.19333
vt 0.815218 0.1863
vn 0.0868133 -0.220928 0.971419
vn 0.396632 2.23646e-16 0.917978
f 77/52/83 51/41/84 76/39/82

v 9.69043 4.88498e-15 -0.958103
vt 0.807536 0.149577
vn 0.0218969 -5.03244e-17 0.99976
f 51/41/84 77/52/83 78/53/85

v 11.0116 -0.207433 -1.08871
vt 0.917634 0.169968
vn 0.466824 -0.160539 0.869657
vn 0.0218969 -4.71791e-17 0.99976
f 79/54/86 78/53/87 77/52/83

v 10.9655 5.77316e-15 -0.9711
vt 0.913793 0.151606
vn 0.381232 8.32406e-17 0.924479
f 78/53/87 79/54/86 80/55/88

v 11.0116 0.207433 -1.08871
vn 0.466824 0.160539 0.869657
vn 0.381232 8.4927e-17 0.924479
f 79/54/86 81/54/89 80/55/90

v 11.1375 -0.359285 -1.41004
vt 0.928128 0.220132
vn 0.685357 -0.279816 0.672301
f 81/54/89 79/54/86 82/56/91

f 77/52/83 82/56/91 79/54/86

v 10.0345 -0.718571 -1.83598
vt 0.836205 0.286629
vn 0.321386 -0.484283 0.813745
f 82/56/91 77/52/83 83/57/92

f 76/39/82 83/57/92 77/52/83

v 8.65508 -0.855441 -1.95463
vn 0.597347 -0.348699 0.722209
f 83/57/92 76/39/82 84/37/93

f 76/39/82 75/38/81 84/37/93

v 9.06464 -1.11081 -2.99971
vn 0.610514 -0.788945 0.0695578
f 84/37/93 75/38/81 85/36/94

f 85/36/94 75/38/81 74/9/80

f 85/36/94 74/9/80 73/15/79

v 9.52522 -0.961993 -4.17497
vn 0.616729 -0.498736 -0.609022
f 86/34/95 85/36/94 73/15/79

v 9.06464 -0.987778 -2.99971
vn 0.818176 -0.479385 0.317456
f 87/36/96 85/36/94 86/34/95

f 84/37/93 85/36/94 87/36/96

f 87/36/96 83/57/92 84/37/93

v 10.3785 -0.829734 -2.71385
vt 0.864875 0.423681
vn 0.69974 -0.656676 0.28132
f 83/57/92 87/36/96 88/58/97

v 9.47421 -0.855441 -4.0448
vn 0.891271 -0.399069 -0.21536
f 89/35/98 88/58/97 87/36/96

v 10.7225 -0.718571 -3.59172
vt 0.893544 0.560733
vn 0.821601 -0.465875 -0.328531
f 88/58/97 89/35/98 90/59/99

v 9.77403 -0.493889 -4.80986
vn 0.83495 -0.198476 -0.51329
f 91/33/100 90/59/99 89/35/98

v 10.9744 -0.414867 -4.23437
vt 0.914532 0.661062
vn 0.783373 -0.211947 -0.584299
f 90/59/99 91/33/100 92/60/101

vn 0.805213 2.15103e-16 -0.592985
f 41/32/102 92/60/101 91/33/100

v 11.0666 5.32907e-15 -4.4696
vt 0.922214 0.697785
vn 0.763288 3.84267e-16 -0.646059
f 92/60/101 41/32/102 93/61/103

f 42/33/50 93/61/103 41/32/102

v 10.9744 0.414867 -4.23437
vn 0.783373 0.211947 -0.584299
f 93/61/103 42/33/50 94/60/104

v 10.7225 0.718571 -3.59172
vn 0.821601 0.465875 -0.328531
f 42/33/50 95/59/105 94/60/104

f 95/59/105 42/33/50 44/35/52

v 10.3785 0.829734 -2.71385
vn 0.69974 0.656676 0.28132
f 44/35/52 96/58/106 95/59/105

f 96/58/106 44/35/52 46/36/54

v 10.0345 0.718571 -1.83598
vn 0.321386 0.484283 0.813745
f 46/36/54 97/57/107 96/58/106

f 97/57/107 46/36/54 47/37/55

f 49/39/57 97/57/107 47/37/55

v 9.78261 0.414867 -1.19333
vn 0.0868133 0.220928 0.971419
f 97/57/107 49/39/57 98/52/108

f 49/39/57 78/53/85 98/52/108

f 78/53/85 49/39/57 51/41/84

vn 0.0218969 -5.34697e-17 0.99976
f 80/55/88 98/52/108 78/53/109

f 98/52/108 80/55/88 81/54/89

v 11.1375 0.359285 -1.41004
vn 0.685357 0.279816 0.672301
f 99/56/110 98/52/108 81/54/89

f 98/52/108 99/56/110 97/57/107

f 99/56/110 96/58/106 97/57/107

v 11.3096 0.414867 -1.84897
vt 0.942463 0.288658
vn 0.887491 0.291213 0.357148
f 96/58/106 99/56/110 100/62/111

v 11.3096 -0.414867 -1.84897
vn 0.887491 -0.291213 0.357148
f 99/56/110 101/62/112 100/62/111

f 99/56/110 82/56/91 101/62/112

f 81/54/89 82/56/91 99/56/110

f 82/56/91 88/58/97 101/62/112

f 88/58/97 82/56/91 83/57/92

f 90/59/99 101/62/112 88/58/97

v 11.4816 -0.359285 -2.28791
vt 0.956797 0.357184
vn 0.973132 -0.211128 0.0918646
f 101/62/112 90/59/99 102/63/113

v 11.6075 -0.207433 -2.60923
vt 0.967291 0.407349
vn 0.993071 -0.105792 -0.0511728
f 90/59/99 103/64/114 102/63/113

f 103/64/114 90/59/99 92/60/101

v 11.6536 6.43929e-15 -2.72685
vt 0.971132 0.42571
vn 0.995572 6.68973e-16 -0.094005
f 92/60/101 104/65/115 103/64/114

vn 0.763288 3.87638e-16 -0.646059
f 104/65/115 92/60/101 93/61/116

f 94/60/104 104/65/115 93/61/116

v 11.6075 0.207433 -2.60923
vn 0.993071 0.105792 -0.0511728
f 104/65/115 94/60/104 105/64/117

f 95/59/105 105/64/117 94/60/104

v 11.4816 0.359285 -2.28791
vn 0.973132 0.211128 0.0918646
f 105/64/117 95/59/105 106/63/118

f 95/59/105 100/62/111 106/63/118

f 100/62/111 95/59/105 96/58/106

f 100/62/111 101/62/112 106/63/118

f 106/63/118 101/62/112 102/63/113

f 106/63/118 102/63/113 105/64/117

f 105/64/117 102/63/113 103/64/114

vn 0.995572 6.70469e-16 -0.094005
f 105/64/117 103/64/114 104/65/119

v 9.86239 -0.555407 -5.03532
vn 0.552203 -0.196023 -0.810338
f 91/33/100 107/31/120 41/32/49

f 91/33/100 86/34/95 107/31/120

f 89/35/98 86/34/95 91/33/100

f 87/36/96 86/34/95 89/35/98

f 107/31/120 86/34/95 71/14/77

f 86/34/95 73/15/79 71/14/77

f 38/29/46 107/31/120 71/14/77

f 39/30/47 107/31/120 38/29/46

f 41/32/49 107/31/120 39/30/47

f 72/11/78 55/9/63 56/10/64

v 4.60242 -1.07559 -4.57958
vn -0.500563 -0.487543 -0.715359
f 72/11/78 56/10/64 108/12/121

v 4.63095 -0.939596 -4.40343
vn -0.741072 -0.519256 -0.425659
f 56/10/64 109/25/122 108/12/121

v 4.82806 -1.08495 -3.18639
vn -0.716603 -0.646905 0.260757
f 56/10/64 110/10/123 109/25/122

f 56/10/64 57/24/65 110/10/123

f 57/24/65 58/23/66 110/10/123

v 2.98449 -0.954758 -2.82762
vn -0.747582 -0.659109 0.0818356
f 110/10/123 58/23/66 111/47/124

v 3.23201 -0.630799 -2.03779
vn -0.643969 -0.349105 0.680756
f 58/23/66 112/46/125 111/47/124

f 58/23/66 59/22/67 112/46/125

v 1.00998 -0.364736 -1.83266
f 59/22/67 113/45/125 112/46/125

f 113/45/125 59/22/67 60/43/67

f 60/43/67 62/43/37 113/45/125

vn -0.428637 -1.79492e-16 0.903477
f 62/43/37 60/43/67 61/44/126

f 113/45/125 62/43/37 63/45/70

v 0.866857 0.421161 -2.28935
vt 0.0722381 0.357409
vn -0.850215 0.454709 0.26528
f 113/45/125 63/45/70 114/66/127

v 2.98449 0.728384 -2.82762
f 63/45/70 115/47/127 114/66/127

f 115/47/127 63/45/70 64/46/70

f 64/46/70 65/47/71 115/47/127

f 115/47/127 65/47/71 66/48/72

v 2.73697 0.630799 -3.61746
vt 0.228081 0.564751
vn -0.904366 0.365539 -0.220236
f 115/47/127 66/48/72 116/67/128

v 2.55577 0.364192 -4.19566
vt 0.212981 0.655018
vn -0.854908 0.182469 -0.485631
f 116/67/128 66/48/72 117/68/129

f 117/68/129 66/48/72 67/49/73

v 2.48945 2.66454e-15 -4.40729
vt 0.207454 0.688058
vn -0.829474 -1.38806e-16 -0.558545
f 117/68/129 67/49/73 118/69/130

v 2.42253 -0.477379 -4.62083
vn -0.753573 -0.20831 -0.623486
f 119/49/131 118/69/130 67/49/73

v 2.55577 -0.364192 -4.19566
vn -0.854908 -0.182469 -0.485631
f 119/49/131 120/68/132 118/69/130

v 2.66004 -0.826844 -3.86293
vn -0.720291 -0.447322 -0.530173
f 121/48/133 120/68/132 119/49/131

v 2.73697 -0.630799 -3.61746
vn -0.904366 -0.365539 -0.220236
f 121/48/133 122/67/134 120/68/132

v 2.98449 -0.728384 -2.82762
vn -0.850215 -0.454709 0.26528
f 121/48/133 123/47/135 122/67/134

f 111/47/124 123/47/135 121/48/133

f 111/47/124 112/46/125 123/47/135

f 113/45/125 123/47/135 112/46/125

v 0.866857 -0.421161 -2.28935
f 123/47/135 113/45/125 124/66/135

f 113/45/125 114/66/127 124/66/135

v 0.723738 -0.364736 -2.74604
vt 0.0603115 0.428707
f 124/66/135 114/66/127 125/70/134

v 0.723738 0.364736 -2.74604
f 125/70/134 114/66/127 126/70/128

f 114/66/127 116/67/128 126/70/128

f 116/67/128 114/66/127 115/47/127

f 117/68/129 126/70/128 116/67/128

v 0.618968 0.21058 -3.08036
vt 0.0515807 0.480901
f 126/70/128 117/68/129 127/71/129

vn -0.829474 -1.42712e-16 -0.558545
f 118/69/136 127/71/129 117/68/129

v 0.58062 8.88178e-16 -3.20273
vt 0.048385 0.500005
vn -0.829474 -1.52905e-16 -0.558545
f 127/71/129 118/69/136 128/72/137

v 0.618968 -0.21058 -3.08036
f 118/69/136 129/71/132 128/72/137

f 129/71/132 118/69/136 120/68/132

f 120/68/132 125/70/134 129/71/132

f 125/70/134 120/68/132 122/67/134

f 122/67/134 124/66/135 125/70/134

f 124/66/135 122/67/134 123/47/135

f 125/70/134 127/71/129 129/71/132

f 125/70/134 126/70/128 127/71/129

vn -0.829474 -1.49716e-16 -0.558545
f 129/71/132 127/71/129 128/72/138

f 109/25/122 111/47/124 121/48/133

f 110/10/123 111/47/124 109/25/122

v 4.48665 -0.542476 -5.29437
vn -0.570471 -0.223305 -0.790378
f 109/25/122 121/48/133 130/26/139

f 130/26/139 121/48/133 119/49/131

v 2.3356 2.44249e-15 -4.89823
vt 0.194633 0.764703
vn -0.613728 -0.0362882 -0.788683
f 131/73/140 130/26/139 119/49/131

f 68/50/74 130/26/139 131/73/140

v 4.43723 -0.620994 -5.59947
vn -0.558883 -0.223179 -0.798649
f 132/27/141 130/26/139 68/50/74

f 108/12/121 130/26/139 132/27/141

f 108/12/121 109/25/122 130/26/139

f 70/13/76 108/12/121 132/27/141

f 70/13/76 72/11/78 108/12/121

f 69/51/75 70/13/76 132/27/141

f 132/27/141 68/50/74 69/51/75

f 67/49/73 68/50/74 131/73/140

f 119/49/131 67/49/73 131/73/140

f 8/8/10 1/1/1 3/3/3

